<svg width="1000" height="1000" viewBox="0 0 1000 1000" fill="none" xmlns="http://www.w3.org/2000/svg">
<g clip-path="url(#clip0_1_2)">
<g clip-path="url(#clip1_1_2)">
<path d="M687.836 261.048C770.323 248.397 892.404 239.596 937.496 281.949C982.039 324.851 949.045 418.906 935.297 516.262C922.099 613.617 928.148 714.273 875.356 751.125C823.115 787.427 712.033 760.475 621.847 772.576C532.211 784.677 462.372 836.93 404.632 829.229C346.341 821.529 299.599 754.425 232.509 695.572C165.42 636.169 77.9839 584.466 48.2887 511.862C18.0435 439.258 46.089 345.752 105.48 287.999C164.32 230.246 255.606 207.695 329.844 217.045C404.082 226.396 462.372 267.098 512.414 278.649C562.456 290.749 605.35 274.248 687.836 261.048Z" fill="#FF0000"/>
<path d="M239.396 816C218.068 816 211.107 806.225 218.513 786.674L436.237 214.813C445.42 190.819 459.343 178.822 478.005 178.822H540.212C558.874 178.822 572.797 190.819 581.979 214.813L799.704 786.674C807.11 806.225 800.148 816 778.82 816H708.171C688.62 816 674.994 805.78 667.292 785.341L621.97 665.814H396.247L350.925 785.341C343.223 805.78 329.597 816 310.046 816H239.396ZM437.57 555.619H580.646L525.993 414.32C519.476 397.732 515.477 385.735 513.996 378.329C512.811 370.627 511.478 359.371 509.997 344.56H508.22C506.739 359.371 505.257 370.627 503.776 378.329C502.591 385.735 498.741 397.732 492.224 414.32L437.57 555.619Z" fill="black"/>
</g>
</g>
<defs>
<clipPath id="clip0_1_2">
<rect width="1000" height="1000" fill="white"/>
</clipPath>
<clipPath id="clip1_1_2">
<rect width="1000" height="1000" fill="white" transform="translate(14 -40)"/>
</clipPath>
</defs>
</svg>
